#!OML:ASF I:\Actors\actors\Patient Classification 1\Patient 1\Session 1\Subject1.ASF
:FULLY-SPECIFIED
:DEGREES
2348
root -1.77982 8.44114 6.68578 3.17655 0.779073 -4.07039
lowerback 45.6151 0.411963 0.924384
upperback -3.57577 1.29956 0.828823
thorax -27.2911 0.392084 -0.261624
lowerneck -18.5578 -1.85036 -0.50363
upperneck 3.12799 -3.0402 8.20249
head 4.05264 -1.00465 2.37521
rclavicle 1.04362e-014 2.98177e-015
rhumerus 61.4544 12.9649 -82.7455
rradius 20.3839
rwrist 68.9766
rhand 172.08 157.559
rfingers 7.12502
rthumb 17.9856 -1131.63
lclavicle 1.04362e-014 2.98177e-015
lhumerus -299.734 -11.4087 -263.117
lradius 12.9421
lwrist -65.3411
lhand -22.661 -19.2524
lfingers 7.12502
lthumb 3.77042 10.694
rfemur -92.5723 -2.24372 37.3981
rtibia 34.9193
rfoot 160.916 9.4369
rtoes -2.65009
lfemur -94.9903 -0.0463868 -29.1266
ltibia 35.6626
lfoot 161.092 -2.55638
ltoes -5.03773
2349
root -1.77585 8.45078 6.68819 3.15674 0.784406 -3.98076
lowerback 45.625 0.382768 0.886107
upperback -3.57322 1.23519 0.812561
thorax -27.2917 0.374435 -0.222177
lowerneck -18.6307 -1.87909 -0.502798
upperneck 3.33684 -3.09254 8.16746
head 4.13011 -1.02478 2.35945
rclavicle -1.0635e-014 -7.55382e-015
rhumerus 61.3761 12.9887 -82.8115
rradius 20.4417
rwrist 68.5839
rhand 172.413 158.244
rfingers 7.12502
rthumb 18.3061 -1130.91
lclavicle -1.0635e-014 -7.55382e-015
lhumerus -299.734 -11.6266 -263.698
lradius 13.1337
lwrist -64.8974
lhand -22.6227 -18.9686
lfingers 7.12502
lthumb 3.80749 10.9771
rfemur -92.4779 -2.32859 37.2346
rtibia 34.9581
rfoot 160.894 9.32911
rtoes -2.80555
lfemur -94.8677 -0.0950355 -29.0845
ltibia 35.7622
lfoot 161.131 -2.25444
ltoes -4.90449
2350
root -1.77167 8.45753 6.69067 3.15263 0.789531 -3.93132
lowerback 45.5922 0.343255 0.917535
upperback -3.58886 1.19502 0.789528
thorax -27.3016 0.353919 -0.242956
lowerneck -18.5732 -1.91772 -0.532885
upperneck 3.42029 -3.14276 8.16928
head 4.1499 -1.0488 2.36038
rclavicle 6.75868e-015 2.0276e-014
rhumerus 61.5419 14.1221 -80.3659
rradius 20.8188
rwrist 66.536
rhand 172.584 155.65
rfingers 7.12502
rthumb 18.4711 -1133.49
lclavicle 6.75868e-015 2.0276e-014
lhumerus -299.793 -11.6343 -263.564
lradius 13.221
lwrist -65.4894
lhand -22.4284 -18.5562
lfingers 7.12502
lthumb 3.99509 11.3861
rfemur -92.4037 -2.3966 37.0995
rtibia 35.0043
rfoot 160.843 9.21954
rtoes -2.69342
lfemur -94.7885 -0.134689 -29.0518
ltibia 35.8135
lfoot 161.152 -2.08792
ltoes -5.39431
2351
root -1.76881 8.46204 6.69292 3.1696 0.770163 -3.91884
lowerback 45.5305 0.315539 0.955777
upperback -3.6256 1.17858 0.782003
thorax -27.3332 0.341902 -0.262658
lowerneck -18.5141 -1.93938 -0.545921
upperneck 3.51701 -3.1696 8.10979
head 4.17065 -1.06449 2.34153
rclavicle -7.45443e-015 -3.97569e-015
rhumerus 61.3577 14.0819 -80.5151
rradius 20.7949
rwrist 66.7454
rhand 172.646 155.762
rfingers 7.12502
rthumb 18.5303 -1133.38
lclavicle -7.45443e-015 -3.97569e-015
lhumerus -299.829 -11.6903 -263.657
lradius 13.1818
lwrist -65.3762
lhand -22.3029 -18.3901
lfingers 7.12502
lthumb 4.11632 11.5499
rfemur -92.3498 -2.39111 37.0139
rtibia 35.0512
rfoot 160.793 9.1736
rtoes -2.8972
lfemur -94.7479 -0.110263 -28.9835
ltibia 35.8234
lfoot 161.134 -1.90059
ltoes -5.876
2352
root -1.76637 8.46447 6.69591 3.17824 0.731619 -3.88186
lowerback 45.4381 0.2947 0.948124
upperback -3.65541 1.14346 0.7716
thorax -27.343 0.330279 -0.249869
lowerneck -18.4713 -1.9228 -0.492288
upperneck 3.65135 -3.15601 7.96816
head 4.20074 -1.06286 2.28992
rclavicle 8.05078e-015 8.34896e-015
rhumerus 61.1865 14.0438 -80.7084
rradius 20.7626
rwrist 66.9255
rhand 172.677 155.934
rfingers 7.12502
rthumb 18.5598 -1133.2
lclavicle 8.05078e-015 8.34896e-015
lhumerus -299.848 -11.7985 -264.095
lradius 13.1272
lwrist -64.444
lhand -22.1329 -18.4626
lfingers 7.12502
lthumb 4.28047 11.4741
rfemur -92.3023 -2.35139 36.9115
rtibia 35.0581
rfoot 160.772 9.24912
rtoes -4.10614
lfemur -94.7129 -0.0378041 -28.9003
ltibia 35.8281
lfoot 161.102 -1.54424
ltoes -6.07447
